<svg xmlns="http://www.w3.org/2000/svg" viewBox="0 0 1674 508">
    <g transform="matrix(0.705868,0,0,0.704066,-975.931,-772.787)">
        <rect x="1383.31" y="1098.32" width="718.881" height="718.881"/>
    </g>
    <g transform="matrix(2.25986,0,0,2.25986,-643.321,-2868.21)">
        <rect x="306.3" y="1290.43" width="160.473" height="160.473" style="fill:white;"/>
    </g>
    <g transform="matrix(-0.592075,0,0,-0.592075,640.553,1222.17)">
        <rect x="306.3" y="1290.43" width="160.473" height="160.473" style="fill:white;"/>
    </g>
    <g transform="matrix(-0.592075,0,0,-0.592075,459.053,1040.84)">
        <rect x="306.3" y="1290.43" width="160.473" height="160.473"/>
    </g>
    <g transform="matrix(7.22718,0,0,7.22718,-15855.9,-8046.03)">
        <path d="M2307.67,1160.31L2313.27,1159.96L2313.27,1169.31L2291.37,1169.31C2288.57,1169.31 2286,1168.92 2283.67,1168.13C2281.33,1167.35 2279.33,1166.19 2277.67,1164.66C2276,1163.12 2274.7,1161.23 2273.77,1158.98C2272.83,1156.73 2272.37,1154.14 2272.37,1151.21C2272.37,1148.51 2272.87,1146.03 2273.87,1143.78C2274.87,1141.53 2276.24,1139.6 2277.99,1137.98C2279.74,1136.37 2281.82,1135.12 2284.22,1134.23C2286.62,1133.35 2289.22,1132.91 2292.02,1132.91C2294.82,1132.91 2297.4,1133.35 2299.77,1134.23C2302.13,1135.12 2304.18,1136.34 2305.89,1137.91C2307.61,1139.47 2308.95,1141.36 2309.92,1143.56C2310.88,1145.76 2311.37,1148.16 2311.37,1150.76C2311.37,1151.76 2311.26,1152.74 2311.04,1153.71C2310.83,1154.67 2310.54,1155.57 2310.19,1156.38C2309.84,1157.2 2309.44,1157.93 2308.99,1158.58C2308.54,1159.23 2308.1,1159.74 2307.67,1160.11L2307.67,1160.31ZM2285.02,1151.41C2285.02,1152.57 2285.19,1153.64 2285.54,1154.61C2285.89,1155.57 2286.38,1156.41 2286.99,1157.11C2287.61,1157.81 2288.35,1158.35 2289.22,1158.73C2290.08,1159.12 2291.02,1159.31 2292.02,1159.31C2293.02,1159.31 2293.94,1159.12 2294.79,1158.73C2295.64,1158.35 2296.38,1157.81 2297.02,1157.11C2297.65,1156.41 2298.14,1155.57 2298.49,1154.61C2298.84,1153.64 2299.02,1152.57 2299.02,1151.41C2299.02,1150.27 2298.84,1149.23 2298.49,1148.28C2298.14,1147.33 2297.65,1146.53 2297.02,1145.88C2296.38,1145.23 2295.64,1144.72 2294.79,1144.36C2293.94,1143.99 2293.02,1143.81 2292.02,1143.81C2291.02,1143.81 2290.08,1143.99 2289.22,1144.36C2288.35,1144.72 2287.61,1145.23 2286.99,1145.88C2286.38,1146.53 2285.89,1147.33 2285.54,1148.28C2285.19,1149.23 2285.02,1150.27 2285.02,1151.41Z" style="fill-rule:nonzero;"/>
    </g>
    <g transform="matrix(7.22718,0,0,7.22718,-15855.9,-8046.03)">
        <path d="M2344.37,1169.31L2333.12,1169.31L2333.12,1166.41L2333.02,1166.41C2332.35,1167.37 2331.36,1168.22 2330.04,1168.93C2328.72,1169.65 2327.22,1170.01 2325.52,1170.01C2323.65,1170.01 2322.12,1169.68 2320.92,1169.03C2319.72,1168.38 2318.76,1167.53 2318.04,1166.48C2317.33,1165.43 2316.83,1164.25 2316.54,1162.93C2316.26,1161.62 2316.12,1160.31 2316.12,1159.01L2316.12,1143.01L2327.72,1143.01L2327.72,1156.91C2327.72,1158.24 2327.93,1159.17 2328.34,1159.71C2328.76,1160.24 2329.38,1160.51 2330.22,1160.51C2330.98,1160.51 2331.61,1160.2 2332.09,1159.58C2332.58,1158.97 2332.82,1158.07 2332.82,1156.91L2332.82,1143.01L2344.37,1143.01L2344.37,1169.31Z" style="fill-rule:nonzero;"/>
    </g>
    <g transform="matrix(7.22718,0,0,7.22718,-15855.9,-8046.03)">
        <path d="M2380.12,1156.06C2380.12,1157.79 2379.86,1159.49 2379.34,1161.16C2378.83,1162.82 2378.07,1164.32 2377.07,1165.63C2376.07,1166.95 2374.82,1168.01 2373.32,1168.81C2371.82,1169.61 2370.08,1170.01 2368.12,1170.01C2366.48,1170.01 2364.93,1169.7 2363.47,1169.08C2362,1168.47 2360.88,1167.62 2360.12,1166.56L2360.02,1166.56L2360.02,1169.31L2349.67,1169.31L2349.67,1131.51L2361.17,1131.51L2361.17,1145.11L2361.27,1145.11C2362.03,1144.21 2363.05,1143.52 2364.32,1143.03C2365.58,1142.55 2366.85,1142.31 2368.12,1142.31C2370.08,1142.31 2371.82,1142.71 2373.32,1143.51C2374.82,1144.31 2376.07,1145.36 2377.07,1146.66C2378.07,1147.96 2378.83,1149.42 2379.34,1151.06C2379.86,1152.69 2380.12,1154.36 2380.12,1156.06ZM2369.42,1156.06C2369.42,1154.89 2369.05,1153.87 2368.32,1153.01C2367.58,1152.14 2366.52,1151.71 2365.12,1151.71C2363.75,1151.71 2362.66,1152.14 2361.84,1153.01C2361.03,1153.87 2360.62,1154.89 2360.62,1156.06C2360.62,1157.29 2361.03,1158.34 2361.84,1159.21C2362.66,1160.07 2363.75,1160.51 2365.12,1160.51C2366.52,1160.51 2367.58,1160.08 2368.32,1159.23C2369.05,1158.38 2369.42,1157.32 2369.42,1156.06Z" style="fill-rule:nonzero;"/>
    </g>
    <g transform="matrix(7.22718,0,0,7.22718,-15855.9,-8046.03)">
        <path d="M2384.42,1143.01L2395.97,1143.01L2395.97,1169.31L2384.42,1169.31L2384.42,1143.01ZM2384.22,1135.41C2384.22,1134.61 2384.38,1133.85 2384.69,1133.13C2385.01,1132.42 2385.44,1131.79 2385.99,1131.26C2386.54,1130.72 2387.18,1130.3 2387.92,1129.98C2388.65,1129.67 2389.43,1129.51 2390.27,1129.51C2391.07,1129.51 2391.82,1129.67 2392.52,1129.98C2393.22,1130.3 2393.84,1130.72 2394.39,1131.26C2394.94,1131.79 2395.38,1132.42 2395.69,1133.13C2396.01,1133.85 2396.17,1134.61 2396.17,1135.41C2396.17,1136.24 2396.01,1137.02 2395.69,1137.73C2395.38,1138.45 2394.94,1139.07 2394.39,1139.58C2393.84,1140.1 2393.22,1140.51 2392.52,1140.81C2391.82,1141.11 2391.07,1141.26 2390.27,1141.26C2389.43,1141.26 2388.65,1141.11 2387.92,1140.81C2387.18,1140.51 2386.54,1140.1 2385.99,1139.58C2385.44,1139.07 2385.01,1138.45 2384.69,1137.73C2384.38,1137.02 2384.22,1136.24 2384.22,1135.41Z" style="fill-rule:nonzero;"/>
    </g>
    <g transform="matrix(7.22718,0,0,7.22718,-15855.9,-8046.03)">
        <path d="M2415.62,1170.31C2413.38,1170.31 2411.33,1169.97 2409.47,1169.31C2407.6,1168.64 2405.98,1167.69 2404.62,1166.46C2403.25,1165.22 2402.18,1163.74 2401.42,1162.01C2400.65,1160.27 2400.27,1158.32 2400.27,1156.16C2400.27,1154.02 2400.66,1152.08 2401.44,1150.33C2402.22,1148.58 2403.32,1147.09 2404.72,1145.86C2406.12,1144.62 2407.76,1143.67 2409.64,1143.01C2411.53,1142.34 2413.57,1142.01 2415.77,1142.01C2416.67,1142.01 2417.58,1142.08 2418.49,1142.23C2419.41,1142.38 2420.29,1142.59 2421.14,1142.86C2421.99,1143.12 2422.78,1143.42 2423.49,1143.76C2424.21,1144.09 2424.82,1144.46 2425.32,1144.86L2419.57,1153.16C2419.17,1152.69 2418.64,1152.33 2417.99,1152.08C2417.34,1151.83 2416.72,1151.71 2416.12,1151.71C2415.55,1151.71 2415,1151.8 2414.47,1151.98C2413.93,1152.17 2413.46,1152.45 2413.04,1152.83C2412.62,1153.22 2412.28,1153.68 2412.02,1154.23C2411.75,1154.78 2411.62,1155.42 2411.62,1156.16C2411.62,1156.89 2411.75,1157.53 2412.02,1158.08C2412.28,1158.63 2412.62,1159.08 2413.04,1159.43C2413.46,1159.78 2413.93,1160.05 2414.47,1160.23C2415,1160.42 2415.55,1160.51 2416.12,1160.51C2416.78,1160.51 2417.43,1160.38 2418.07,1160.13C2418.7,1159.88 2419.22,1159.54 2419.62,1159.11L2425.42,1167.21C2424.32,1168.07 2422.89,1168.81 2421.14,1169.41C2419.39,1170.01 2417.55,1170.31 2415.62,1170.31Z" style="fill-rule:nonzero;"/>
    </g>
</svg>